<svg width="72" height="58" viewBox="0 0 72 58" fill="none" xmlns="http://www.w3.org/2000/svg">
<path d="M25.5587 6.66854L21.1888 10.2516L16.1134 6.0877L20.3347 2.62656L17.2241 0.0737305L0.417969 13.8538L3.52849 16.4042L7.74971 12.9431L12.828 17.1069L8.4581 20.69L46.2392 51.6682L61.9784 51.9646L68.6513 57.4359L71.7239 57.1635L63.6838 50.571L63.3223 37.6658L25.5587 6.66854ZM25.5587 10.7512L44.7524 26.4888L32.6601 36.4038L27.7743 32.4024L33.8379 27.4306L31.2725 25.3272L25.2089 30.299L20.6903 26.594L26.7539 21.6222L24.1886 19.5188L18.1249 24.4906L13.4781 20.6804L25.5587 10.7512Z" fill="#307172"/>
</svg>
