<svg width="49" height="46" viewBox="0 0 49 46" fill="none" xmlns="http://www.w3.org/2000/svg">
<path d="M46.1989 6.72942L31.2943 0.17536C31.0177 0.0596085 30.7208 0 30.421 0C30.1211 0 29.8243 0.0596085 29.5477 0.17536L14.643 6.72942C13.9938 7.01427 13.4419 7.48234 13.0548 8.07624C12.6677 8.67014 12.4624 9.36407 12.4639 10.073V24.5119C12.4639 32.1472 30.396 42.5771 30.4293 42.5937C30.4459 42.5771 48.3781 32.1472 48.3781 24.5119V10.073C48.3796 9.36407 48.1742 8.67014 47.7871 8.07624C47.4 7.48234 46.8481 7.01427 46.1989 6.72942Z" fill="#6BB2BC"/>
<path d="M24.6941 35.202C26.9861 29.529 24.2453 23.072 18.5723 20.7799C12.8992 18.4878 6.4422 21.2287 4.15014 26.9018C1.85807 32.5748 4.59891 39.0318 10.272 41.3239C15.945 43.6159 22.402 40.8751 24.6941 35.202Z" fill="#BFEFF5"/>
<path d="M14.3605 35.5573C14.2353 35.5538 14.112 35.5255 13.9978 35.4741C13.8836 35.4227 13.7807 35.3492 13.6951 35.2579L8.72136 29.6686C8.64381 29.5812 8.58421 29.4794 8.546 29.369C8.50779 29.2586 8.49169 29.1418 8.49865 29.0251C8.5056 28.9085 8.53548 28.7944 8.58653 28.6893C8.63758 28.5842 8.70883 28.4902 8.79621 28.4127C8.88359 28.3351 8.9854 28.2756 9.0958 28.2374C9.20621 28.1991 9.32304 28.1831 9.43967 28.19C9.55629 28.197 9.6704 28.2268 9.77549 28.2779C9.88057 28.3289 9.97458 28.4002 10.0521 28.4875L14.294 33.2451L19.0182 26.6245C19.0859 26.5294 19.1717 26.4487 19.2706 26.3868C19.3695 26.3249 19.4797 26.2831 19.5948 26.2638C19.7098 26.2445 19.8276 26.2481 19.9413 26.2743C20.055 26.3005 20.1624 26.3488 20.2575 26.4165C20.3525 26.4843 20.4333 26.57 20.4951 26.669C20.557 26.7679 20.5988 26.878 20.6181 26.9931C20.6374 27.1082 20.6339 27.2259 20.6077 27.3397C20.5815 27.4534 20.5331 27.5608 20.4654 27.6558L15.0924 35.1747C15.0149 35.2845 14.913 35.3747 14.7946 35.4382C14.6763 35.5017 14.5447 35.5368 14.4104 35.5406L14.3605 35.5573Z" fill="white"/>
</svg>
