<svg width="56" height="42" viewBox="0 0 56 42" fill="none" xmlns="http://www.w3.org/2000/svg">
<path d="M40.5639 25.0053V30.5941C40.5639 32.0525 39.9846 33.4511 38.9534 34.4823C37.9222 35.5135 36.5236 36.0928 35.0653 36.0928H5.8232L2.96554e-05 41.934V16.5861C-0.00234287 15.8648 0.137664 15.1502 0.412029 14.4832C0.686394 13.8162 1.08972 13.2098 1.59888 12.699C2.10804 12.1882 2.71303 11.7829 3.37914 11.5063C4.04526 11.2298 4.75942 11.0874 5.48066 11.0874H14.8915V19.5247C14.8915 20.2459 15.0338 20.9601 15.3104 21.6262C15.587 22.2923 15.9923 22.8973 16.5031 23.4065C17.0139 23.9156 17.6202 24.319 18.2873 24.5933C18.9543 24.8677 19.6689 25.0077 20.3902 25.0053H40.5639Z" fill="#6BB2BC"/>
<path d="M20.3898 -0.00012207H49.9564C51.4147 -0.00012207 52.8133 0.5792 53.8445 1.6104C54.8757 2.6416 55.455 4.0402 55.455 5.49854V30.8465L49.6138 25.0053H20.3898C19.6685 25.0076 18.9539 24.8676 18.2869 24.5933C17.6199 24.3189 17.0136 23.9156 16.5027 23.4064C15.9919 22.8973 15.5866 22.2923 15.31 21.6262C15.0335 20.96 14.8911 20.2459 14.8911 19.5246V5.49854C14.8911 4.0402 15.4704 2.6416 16.5016 1.6104C17.5328 0.5792 18.9314 -0.00012207 20.3898 -0.00012207Z" fill="#BFEFF5"/>
<path d="M44.9271 8.99601H21.4001C21.2186 8.99603 21.0389 8.96 20.8715 8.89002C20.7041 8.82004 20.5523 8.7175 20.4248 8.58835C20.2973 8.4592 20.1968 8.30602 20.129 8.1377C20.0612 7.96938 20.0275 7.78927 20.0299 7.60783C20.0299 7.24444 20.1743 6.89593 20.4312 6.63898C20.6882 6.38203 21.0367 6.23767 21.4001 6.23767H44.9271C45.2905 6.23767 45.639 6.38203 45.896 6.63898C46.1529 6.89593 46.2973 7.24444 46.2973 7.60783C46.2997 7.78927 46.266 7.96938 46.1982 8.1377C46.1304 8.30602 46.0299 8.4592 45.9024 8.58835C45.7749 8.7175 45.6231 8.82004 45.4557 8.89002C45.2882 8.96 45.1086 8.99603 44.9271 8.99601Z" fill="white"/>
<path d="M34.4526 15.7027H21.4001C21.0367 15.7027 20.6882 15.5583 20.4312 15.3014C20.1743 15.0444 20.0299 14.6959 20.0299 14.3325C20.0275 14.1511 20.0612 13.971 20.129 13.8026C20.1968 13.6343 20.2973 13.4811 20.4248 13.352C20.5523 13.2229 20.7041 13.1203 20.8715 13.0503C21.0389 12.9804 21.2186 12.9443 21.4001 12.9443H34.4526C34.6341 12.9443 34.8137 12.9804 34.9812 13.0503C35.1486 13.1203 35.3004 13.2229 35.4279 13.352C35.5554 13.4811 35.6559 13.6343 35.7237 13.8026C35.7915 13.971 35.8252 14.1511 35.8228 14.3325C35.8228 14.6959 35.6784 15.0444 35.4215 15.3014C35.1645 15.5583 34.816 15.7027 34.4526 15.7027Z" fill="white"/>
</svg>
