<svg width="53" height="53" viewBox="0 0 53 53" fill="none" xmlns="http://www.w3.org/2000/svg">
<g clip-path="url(#clip0_166_235)">
<path d="M23.0358 7.17188C18.5786 7.17188 14.2215 8.51576 10.5155 11.0336C6.80956 13.5514 3.92113 17.1301 2.21546 21.3171C0.509782 25.5041 0.0634759 30.1113 0.933021 34.5562C1.80257 39.0011 3.94895 43.084 7.10062 46.2885C10.2523 49.4931 14.2677 51.6755 18.6392 52.5596C23.0107 53.4438 27.5419 52.99 31.6598 51.2557C35.7776 49.5214 39.2972 46.5844 41.7735 42.8162C44.2497 39.048 45.5714 34.6179 45.5714 30.0859C45.5714 24.0087 43.1972 18.1804 38.9709 13.8832C34.7446 9.58602 29.0126 7.17188 23.0358 7.17188ZM23.0358 46.3C19.8819 46.3 16.7988 45.3491 14.1764 43.5674C11.5541 41.7858 9.51014 39.2535 8.30319 36.2908C7.09624 33.328 6.78048 30.0679 7.39577 26.9227C8.01107 23.7774 9.52981 20.8884 11.76 18.6208C13.9901 16.3532 16.8314 14.809 19.9247 14.1833C23.018 13.5577 26.2243 13.8788 29.1382 15.106C32.052 16.3332 34.5425 18.4114 36.2947 21.0778C38.0469 23.7442 38.9822 26.879 38.9822 30.0859C38.9822 34.3861 37.3021 38.5103 34.3116 41.551C31.321 44.5917 27.265 46.3 23.0358 46.3V46.3Z" fill="#6BB2BC"/>
<path d="M23.0359 18.7925C20.8391 18.7925 18.6916 19.4549 16.865 20.6958C15.0385 21.9368 13.6149 23.7006 12.7742 25.7642C11.9335 27.8278 11.7136 30.0986 12.1421 32.2894C12.5707 34.4801 13.6286 36.4924 15.1819 38.0719C16.7353 39.6513 18.7144 40.7269 20.8689 41.1627C23.0235 41.5984 25.2568 41.3748 27.2864 40.52C29.3159 39.6652 31.0506 38.2177 32.2711 36.3605C33.4916 34.5033 34.143 32.3197 34.143 30.0861C34.1453 28.6023 33.8597 27.1327 33.3023 25.7614C32.745 24.3901 31.9269 23.1442 30.895 22.095C29.8632 21.0458 28.6378 20.214 27.2891 19.6473C25.9405 19.0806 24.4951 18.7901 23.0359 18.7925V18.7925Z" fill="#6BB2BC"/>
<path d="M51.75 9.58682H43.6964C43.5307 9.58682 43.3718 9.51987 43.2546 9.40069C43.1373 9.28151 43.0714 9.11987 43.0714 8.95133V0.780721C43.0698 0.65738 43.0329 0.537191 42.9652 0.434813C42.8976 0.332435 42.8021 0.252295 42.6904 0.20417C42.5787 0.156044 42.4556 0.142014 42.3362 0.163789C42.2168 0.185564 42.1062 0.242203 42.0179 0.326799L36.0357 6.40936C35.9234 6.52591 35.8595 6.68195 35.8572 6.84513V13.1819L21.5715 27.7074C21.3285 27.9522 21.1356 28.2435 21.004 28.5645C20.8724 28.8855 20.8047 29.2298 20.8047 29.5776C20.8047 29.9253 20.8724 30.2697 21.004 30.5907C21.1356 30.9116 21.3285 31.2029 21.5715 31.4477V31.4477C21.8122 31.6948 22.0988 31.8909 22.4144 32.0247C22.7301 32.1585 23.0688 32.2274 23.4108 32.2274C23.7528 32.2274 24.0915 32.1585 24.4072 32.0247C24.7229 31.8909 25.0093 31.6948 25.2501 31.4477L39.5536 16.9222H45.7679C45.8504 16.9234 45.9324 16.908 46.009 16.8768C46.0856 16.8457 46.1554 16.7994 46.2143 16.7406L52.1786 10.6762C52.2668 10.5884 52.3274 10.476 52.3529 10.3532C52.3783 10.2304 52.3674 10.1027 52.3216 9.98623C52.2758 9.86972 52.197 9.76961 52.0953 9.69853C51.9936 9.62745 51.8734 9.58858 51.75 9.58682V9.58682Z" fill="#BFEFF5"/>
</g>
<defs>
<clipPath id="clip0_166_235">
<rect width="52" height="53" fill="white" transform="translate(0.5)"/>
</clipPath>
</defs>
</svg>
