<svg width="53" height="46" viewBox="0 0 53 46" fill="none" xmlns="http://www.w3.org/2000/svg">
<path d="M45.7565 28.9489H41.7992C38.8526 28.9489 36.4639 31.2871 36.4639 34.1714V40.0961C36.4639 42.9804 38.8526 45.3186 41.7992 45.3186H45.7565C48.7032 45.3186 51.0919 42.9804 51.0919 40.0961V34.1714C51.0919 31.2871 48.7032 28.9489 45.7565 28.9489Z" fill="#6BB2BC"/>
<path d="M28.4963 14.9414H24.5389C21.5923 14.9414 19.2036 17.2796 19.2036 20.164V40.0892C19.2036 42.9736 21.5923 45.3118 24.5389 45.3118H28.4963C31.4429 45.3118 33.8316 42.9736 33.8316 40.0892V20.164C33.8316 17.2796 31.4429 14.9414 28.4963 14.9414Z" fill="#6BB2BC"/>
<path d="M11.236 5.29175H7.27869C4.33207 5.29175 1.94336 7.62997 1.94336 10.5143V40.0875C1.94336 42.9718 4.33207 45.31 7.27869 45.31H11.236C14.1826 45.31 16.5714 42.9718 16.5714 40.0875V10.5143C16.5714 7.62997 14.1826 5.29175 11.236 5.29175Z" fill="#6BB2BC"/>
<path d="M37.2411 23.5534C43.7393 23.5534 49.0071 18.3969 49.0071 12.0361C49.0071 5.67527 43.7393 0.518799 37.2411 0.518799C30.7429 0.518799 25.4751 5.67527 25.4751 12.0361C25.4751 18.3969 30.7429 23.5534 37.2411 23.5534Z" fill="#BFEFF5"/>
<path d="M41.7994 16.9993H35.245C35.0295 16.9993 34.8227 16.9155 34.6703 16.7663C34.5179 16.6171 34.4323 16.4148 34.4323 16.2038C34.4299 16.0987 34.4493 15.9942 34.4893 15.8966C34.5292 15.799 34.589 15.7104 34.665 15.6361C34.7409 15.5617 34.8315 15.5032 34.9312 15.4641C35.0309 15.4249 35.1376 15.406 35.245 15.4083H41.0044V10.1339C40.9872 10.0208 40.9951 9.90538 41.0276 9.79554C41.0601 9.68571 41.1165 9.58403 41.1928 9.49743C41.2691 9.41083 41.3635 9.34134 41.4697 9.29372C41.5759 9.24609 41.6913 9.22144 41.8082 9.22144C41.925 9.22144 42.0405 9.24609 42.1467 9.29372C42.2529 9.34134 42.3473 9.41083 42.4236 9.49743C42.4999 9.58403 42.5562 9.68571 42.5888 9.79554C42.6213 9.90538 42.6291 10.0208 42.612 10.1339V16.2038C42.612 16.3083 42.591 16.4117 42.5501 16.5082C42.5093 16.6047 42.4494 16.6924 42.374 16.7663C42.2985 16.8402 42.2089 16.8988 42.1103 16.9388C42.0117 16.9787 41.9061 16.9993 41.7994 16.9993Z" fill="white"/>
<path d="M41.7996 16.9993C41.5863 16.9927 41.3839 16.906 41.2342 16.7572L32.7365 8.43915C32.6617 8.36678 32.6023 8.2806 32.5618 8.18561C32.5213 8.09062 32.5005 7.9887 32.5005 7.88576C32.5005 7.78283 32.5213 7.68092 32.5618 7.58593C32.6023 7.49094 32.6617 7.40476 32.7365 7.33239C32.8889 7.18349 33.0954 7.09985 33.3107 7.09985C33.526 7.09985 33.7325 7.18349 33.8848 7.33239L42.3825 15.6331C42.5346 15.7823 42.6201 15.9844 42.6201 16.1952C42.6201 16.4059 42.5346 16.6081 42.3825 16.7572C42.2285 16.9101 42.0189 16.9972 41.7996 16.9993Z" fill="white"/>
</svg>
