<svg width="54" height="38" viewBox="0 0 54 38" fill="none" xmlns="http://www.w3.org/2000/svg">
<g clip-path="url(#clip0_197_602)">
<path d="M24.3687 35.661L1.1357 12.4688C0.426244 11.7563 0.0177088 10.7993 -0.00576564 9.79501C-0.0292401 8.79073 0.334188 7.81575 1.00958 7.07105L6.25451 1.27747C6.62547 0.873571 7.07679 0.551358 7.57955 0.331398C8.08232 0.111437 8.62551 -0.00143127 9.17443 1.37006e-05H44.069C44.6474 -0.00015185 45.2187 0.127159 45.7421 0.372865C46.2655 0.61857 46.7282 0.976616 47.097 1.42142L52.5763 8.02463C53.1949 8.77887 53.5115 9.73525 53.4649 10.7089C53.4183 11.6826 53.0118 12.6045 52.324 13.2964L29.9201 35.661C29.1835 36.3949 28.1852 36.8072 27.1444 36.8072C26.1036 36.8072 25.1053 36.3949 24.3687 35.661V35.661Z" fill="#6BB2BC"/>
<path d="M39.9231 37.6042L36.4445 27.6364L26.5312 23.966L36.4985 20.4754L40.1935 10.5796L43.6901 20.5474L53.6033 24.2358L43.618 27.7084L39.9231 37.6042Z" fill="#BFEFF5"/>
<path d="M39.9231 38L36.3183 27.7444L26.1167 23.948L36.3904 20.3495L40.1935 10.1658L43.7983 20.4215L53.9999 24.2178L43.7262 27.8163L39.9231 38ZM26.9097 23.948L36.5346 27.5285L39.9231 37.2084L43.5099 27.6004H43.5639L53.2068 24.2358L43.582 20.6554L40.1935 10.9754L36.6067 20.5834H36.5526L26.9097 23.948Z" fill="white"/>
</g>
<defs>
<clipPath id="clip0_197_602">
<rect width="54" height="38" fill="white"/>
</clipPath>
</defs>
</svg>
