<svg width="51" height="43" viewBox="0 0 51 43" fill="none" xmlns="http://www.w3.org/2000/svg">
<path d="M35.0435 0H5.56106C2.48977 0 0 2.48977 0 5.56106V36.6306C0 39.7019 2.48977 42.1917 5.56106 42.1917H35.0435C38.1148 42.1917 40.6046 39.7019 40.6046 36.6306V5.56106C40.6046 2.48977 38.1148 0 35.0435 0Z" fill="#6BB2BC"/>
<path d="M28.8297 33.0484L22.0152 34.6903C21.8218 34.7376 21.6196 34.7347 21.4278 34.6817C21.2359 34.6287 21.0609 34.5275 20.9193 34.3876C20.7777 34.2478 20.6742 34.074 20.6188 33.8828C20.5634 33.6917 20.5579 33.4895 20.6028 33.2956L22.2447 26.4634C22.3343 26.1007 22.5238 25.7704 22.7919 25.5101L42.6353 5.64917C43.0343 5.25989 43.5696 5.04199 44.127 5.04199C44.6844 5.04199 45.2198 5.25989 45.6188 5.64917L49.6439 9.67432C50.0332 10.0733 50.2511 10.6087 50.2511 11.1661C50.2511 11.7235 50.0332 12.2589 49.6439 12.6579L29.783 32.5012C29.5227 32.7693 29.1924 32.9589 28.8297 33.0484Z" fill="#BFEFF5"/>
<path d="M23.5154 9.49796H6.65571C6.29822 9.49799 5.9551 9.3572 5.70067 9.10608C5.44624 8.85495 5.30103 8.51371 5.29639 8.15625C5.29639 7.79572 5.43954 7.44996 5.69447 7.19503C5.9494 6.94009 6.29518 6.79688 6.65571 6.79688H23.5154C23.876 6.79688 24.2217 6.94009 24.4767 7.19503C24.7316 7.44996 24.8748 7.79572 24.8748 8.15625C24.8702 8.51371 24.7249 8.85495 24.4705 9.10608C24.216 9.3572 23.8729 9.49799 23.5154 9.49796Z" fill="white"/>
<path d="M16.648 15.412H6.65571C6.29518 15.412 5.9494 15.2688 5.69447 15.0139C5.43954 14.7589 5.29639 14.4132 5.29639 14.0527C5.30103 13.6952 5.44624 13.354 5.70067 13.1028C5.9551 12.8517 6.29822 12.7109 6.65571 12.7109H16.648C17.0055 12.7109 17.3486 12.8517 17.603 13.1028C17.8574 13.354 18.0027 13.6952 18.0074 14.0527C18.0074 14.4132 17.8642 14.7589 17.6092 15.0139C17.3543 15.2688 17.0085 15.412 16.648 15.412Z" fill="white"/>
</svg>
