<svg width="69" height="69" viewBox="0 0 69 69" fill="none" xmlns="http://www.w3.org/2000/svg">
<g clip-path="url(#clip0_35_155)">
<path d="M0.713867 43.8196H56.1896V48.1865H0.713867V43.8196Z" fill="#307172"/>
<path d="M41.9381 55.6112C41.9381 52.7007 29.1237 52.9924 29.1237 55.65V65.5C28.9956 66.8562 29.9805 68.1866 31.3421 68.1866L65.6659 68.1888C65.99 68.1892 66.3111 68.1257 66.6106 68.0019C66.9102 67.8781 67.1824 67.6964 67.4117 67.4672C67.6409 67.2381 67.8227 66.9659 67.9467 66.6664C68.0706 66.3669 68.1343 66.0459 68.134 65.7217L68.1372 34.5346C68.1372 14.9379 51.3166 -0.812774 31.3497 1.00308C30.6976 1.06263 30.0957 1.37856 29.6763 1.88149C29.257 2.38441 29.0543 3.03322 29.113 3.68543V14.2986H41.9381V6.78111C54.197 10.0684 63.1966 21.2606 63.2009 34.5249C63.1568 47.7806 54.2024 59.0245 41.9381 62.2945V55.6091V55.6112Z" fill="#307172"/>
<path d="M46.2598 34.6101C46.2595 33.8844 46.4022 33.1658 46.6797 32.4953C46.9573 31.8248 47.3642 31.2155 47.8773 30.7023C48.3904 30.1891 48.9996 29.782 49.6701 29.5044C50.3405 29.2267 51.0591 29.0838 51.7848 29.084C53.2507 29.0846 54.6564 29.6668 55.6933 30.7029C56.7302 31.739 57.3136 33.1443 57.3153 34.6101C57.3122 36.0757 56.7284 37.4804 55.6919 38.5165C54.6553 39.5527 53.2505 40.1359 51.7848 40.1384C50.3196 40.1364 48.9149 39.5533 47.8791 38.5168C46.8433 37.4804 46.2609 36.0754 46.2598 34.6101Z" fill="#307172"/>
<path d="M39.1932 28.8901H20.6783L0.669434 31.9525V40.1308L15.2232 40.133C14.7636 39.401 14.5182 38.5549 14.515 37.6907C14.5169 36.4513 15.0103 35.2632 15.8867 34.3869C16.7632 33.5107 17.9514 33.0176 19.1908 33.0159H29.3314L37.5496 31.2991L38.007 33.4809L29.5617 35.244H19.1908C18.8698 35.2419 18.5515 35.303 18.2541 35.4239C17.9567 35.5448 17.686 35.7231 17.4575 35.9486C16.9961 36.404 16.7344 37.024 16.7302 37.6724C16.7259 38.3207 16.9793 38.9441 17.4347 39.4056C17.8901 39.867 18.5102 40.1287 19.1585 40.133L39.233 40.1362C42.3395 40.1114 44.8302 37.611 44.8302 34.5207C44.8304 33.7806 44.6846 33.0478 44.4012 32.3641C44.1178 31.6804 43.7024 31.0593 43.1787 30.5363C42.655 30.0133 42.0334 29.5988 41.3493 29.3163C40.6653 29.0338 39.9322 28.889 39.1921 28.8901H39.1932Z" fill="#307172"/>
</g>
<defs>
<clipPath id="clip0_35_155">
<rect width="68.8885" height="68.8885" rx="20" fill="white"/>
</clipPath>
</defs>
</svg>
