<svg width="60" height="60" viewBox="0 0 60 60" fill="none" xmlns="http://www.w3.org/2000/svg">
<g clip-path="url(#clip0_486_218)">
<circle cx="30" cy="30" r="30" fill="#6BB2BC"/>
<path d="M24.3979 15.7538L22.0691 18.065L19.3644 15.3792L21.6139 13.1466L19.9563 11.5L11 20.3884L12.6576 22.0335L14.9072 19.801L17.6135 22.4868L15.2847 24.798L35.4188 44.7796L43.8065 44.9708L47.3626 48.5L49 48.3242L44.7153 44.072L44.5227 35.7478L24.3979 15.7538ZM24.3979 18.3872L34.6265 28.5384L28.1823 34.9337L25.5786 32.3528L28.81 29.1458L27.4428 27.7891L24.2114 30.996L21.8034 28.6062L25.0348 25.3993L23.6677 24.0425L20.4363 27.2494L17.9599 24.7918L24.3979 18.3872Z" fill="white"/>
</g>
<defs>
<clipPath id="clip0_486_218">
<rect width="60" height="60" fill="white"/>
</clipPath>
</defs>
</svg>
