<svg width="60" height="60" viewBox="0 0 60 60" fill="none" xmlns="http://www.w3.org/2000/svg">
<g clip-path="url(#clip0_486_227)">
<circle cx="30" cy="30" r="30" fill="#6BB2BC"/>
<path d="M43.8982 27.4318C43.8059 27.829 43.7135 28.2262 43.5904 28.5928C43.4673 28.9594 43.3749 29.5705 43.2518 30.0594L42.5747 32.5647C42.4824 32.9314 42.3593 33.298 42.2669 33.6647L42.1746 34.0008C42.113 34.2146 42.0207 34.4285 41.9591 34.6729C41.922 34.8399 41.8705 35.0035 41.8052 35.1618C41.7744 35.3451 41.7129 35.4979 41.6821 35.6506V35.7117C41.559 36.0478 41.4667 36.4145 41.3435 36.72C41.0973 37.4838 40.8511 38.1866 40.5741 38.8588L40.3894 39.3476C40.3894 39.4087 40.3586 39.4393 40.3586 39.4698C40.1431 39.9892 39.9277 40.4475 39.7122 40.9058L39.4968 41.3336L39.4352 41.4864L39.2505 41.7919C39.2484 41.8483 39.2267 41.9023 39.189 41.9447L39.0351 42.2196C38.6412 42.9144 38.166 43.5605 37.6192 44.1445L37.4346 44.2973L37.0652 44.6028L36.9421 44.6945L36.7882 44.7861L36.6343 44.8778H36.5728L36.2342 45H35.5263C31.7712 45 33.6795 38.431 30.6939 36.7811H29.3396L28.878 37.0867C28.6979 37.2553 28.5331 37.4393 28.3855 37.6366C26.7234 40.0198 27.7699 45 24.4765 45C22.322 45 20.5676 41.853 19.0594 37.6366C18.6593 36.5367 18.2899 35.3757 17.9206 34.1841C17.3358 32.1064 16.751 29.9371 16.2585 27.829C16.1969 27.6456 16.1662 27.4623 16.1046 27.279C16.043 27.0957 15.8891 26.2707 15.7968 25.7819C15.7408 25.5196 15.6997 25.2544 15.6737 24.9875C15.6737 24.9569 15.6429 24.9264 15.6429 24.8958C15.6429 24.8653 15.6121 24.4681 15.5814 24.2542C15.5468 24.0009 15.5262 23.7459 15.5198 23.4904C15.2428 18.2046 17.9206 16.127 20.6291 15.302C23.8917 14.3243 25.3999 15.9742 27.062 16.9214C27.5598 17.4603 28.1834 17.8695 28.878 18.113C29.2417 18.2511 29.6274 18.3236 30.0168 18.3268C31.7096 18.3268 32.9408 16.9214 32.9408 16.9214C34.449 16.0659 35.8033 14.6299 38.4811 15.0882L39.3737 15.302C41.836 16.0659 44.2368 17.8074 44.483 22.0544C44.5621 23.8658 44.3649 25.6788 43.8982 27.4318Z" fill="white"/>
</g>
<defs>
<clipPath id="clip0_486_227">
<rect width="60" height="60" fill="white"/>
</clipPath>
</defs>
</svg>
