<svg width="60" height="60" viewBox="0 0 60 60" fill="none" xmlns="http://www.w3.org/2000/svg">
<g clip-path="url(#clip0_486_200)">
<circle cx="30" cy="30" r="30" fill="#6BB2BC"/>
<path d="M35.6532 24.3675C35.2446 24.0968 34.4954 23.8938 34.0073 23.8938H32.9743V19.5289C32.9743 19.2148 32.8488 18.9136 32.6252 18.6915C32.4017 18.4694 32.0986 18.3446 31.7825 18.3446H30.0458V15.0738C30.0473 14.9825 30.0305 14.8918 29.9963 14.807C29.9622 14.7223 29.9115 14.6451 29.847 14.58C29.7826 14.5149 29.7057 14.4632 29.621 14.4279C29.5362 14.3927 29.4452 14.3745 29.3533 14.3745H28.0707C27.884 14.3745 27.705 14.4482 27.573 14.5793C27.4411 14.7105 27.3669 14.8883 27.3669 15.0738V18.3446H25.6302C25.3141 18.3446 25.0109 18.4694 24.7874 18.6915C24.5639 18.9136 24.4383 19.2148 24.4383 19.5289V23.8938H23.4167C22.9173 23.8938 22.1681 24.0968 21.7595 24.3675C18.1385 26.7811 15.7321 31.0219 15.7321 35.8492C15.7162 39.5088 17.1469 43.0284 19.7163 45.6504C20.0682 46.0001 20.7606 46.2595 21.26 46.2595H36.164C36.6521 46.2595 37.3559 46.0001 37.6964 45.6504C40.1596 43.1691 41.6806 39.6953 41.6806 35.8492C41.6806 31.0219 39.2855 26.7811 35.6532 24.3675Z" fill="white"/>
<path d="M21.2601 44.6805C21.1059 44.6619 20.9582 44.6078 20.8288 44.5226C18.5699 42.2556 17.3213 39.1652 17.3213 35.8493C17.3213 31.6987 19.3077 27.8978 22.6449 25.6759C22.8871 25.5605 23.149 25.4917 23.4168 25.4728H24.4384C24.8599 25.4728 25.2641 25.3065 25.5621 25.0104C25.8601 24.7142 26.0276 24.3126 26.0276 23.8938V19.9237H31.3966V23.8938C31.3951 24.1006 31.4348 24.3057 31.5134 24.4972C31.5921 24.6887 31.708 24.8629 31.8547 25.0097C32.0014 25.1565 32.1758 25.2729 32.368 25.3524C32.5602 25.4319 32.7662 25.4728 32.9744 25.4728H34.0074C34.275 25.4932 34.5365 25.562 34.7792 25.6759C38.1051 27.8978 40.1029 31.6987 40.1029 35.8493C40.1029 39.1652 38.8429 42.2556 36.5727 44.5452C36.4429 44.6169 36.3002 44.6629 36.1527 44.6805H21.2601Z" fill="white"/>
<path d="M44.2684 13.2467C44.1539 12.6973 43.867 12.1982 43.4488 11.8212C43.0306 11.4442 42.5029 11.2088 41.9415 11.1488H27.1851C27.1066 11.1488 27.0289 11.1643 26.9566 11.1945C26.8842 11.2247 26.8186 11.2689 26.7636 11.3246C26.7087 11.3802 26.6654 11.4462 26.6365 11.5187C26.6075 11.5911 26.5933 11.6686 26.5948 11.7466V12.8744C26.5948 13.03 26.657 13.1792 26.7677 13.2892C26.8784 13.3992 27.0285 13.4609 27.1851 13.4609C27.1851 13.4609 40.2956 12.8857 41.1923 12.8857C41.6684 12.8845 42.1356 13.0133 42.5431 13.2579L44.2684 13.2467Z" fill="white"/>
<path d="M28.7063 33.9995C25.5344 34.0104 22.3711 33.6737 19.2735 32.9957C19.0276 33.9273 18.9018 34.8862 18.8989 35.8493C18.8989 38.6013 19.8751 41.1615 21.6572 43.1127H35.7553C37.5374 41.1502 38.5136 38.59 38.5136 35.8493C38.5164 34.8858 38.3904 33.9262 38.139 32.9957C35.0415 33.6744 31.8781 34.011 28.7063 33.9995Z" fill="#6BB2BC"/>
</g>
<defs>
<clipPath id="clip0_486_200">
<rect width="60" height="60" fill="white"/>
</clipPath>
</defs>
</svg>
