<svg width="60" height="60" viewBox="0 0 60 60" fill="none" xmlns="http://www.w3.org/2000/svg">
<g clip-path="url(#clip0_486_231)">
<circle cx="30" cy="30" r="30" fill="#6BB2BC"/>
<path d="M25.355 33.7062H14.5003V44.9268H25.355V33.7062Z" fill="white"/>
<path d="M26.5988 39.3143H35.3654C36.1001 39.3142 36.8047 39.0224 37.3244 38.5031C37.8441 37.9838 38.1365 37.2795 38.1372 36.5448C38.1368 35.81 37.8445 35.1056 37.3247 34.5863C36.8049 34.067 36.1001 33.7755 35.3654 33.7758H26.5988V39.3143Z" fill="white"/>
<path d="M45.5 41.561C45.5 40.9418 44.9984 40.4391 44.3786 40.4391H26.5995V44.9258H45.5V41.5605V41.561Z" fill="white"/>
<path d="M38.758 35.9709C38.7589 36.8582 39.1122 37.7089 39.7401 38.3359C40.368 38.9628 41.2192 39.3148 42.1065 39.3143C42.546 39.3147 42.9812 39.2285 43.3873 39.0607C43.7934 38.8929 44.1625 38.6467 44.4735 38.3362C44.7845 38.0258 45.0313 37.6571 45.1998 37.2512C45.3683 36.8454 45.4552 36.4103 45.4556 35.9709C45.4556 34.1255 43.9565 32.6292 42.1065 32.6292C40.2577 32.6292 38.758 34.1255 38.758 35.9709Z" fill="white"/>
<path d="M20.455 26.608L22.3385 21.2454C22.7039 20.2344 23.4056 19.4453 25.3861 19.4453H34.0815C36.0614 19.4453 36.7642 20.2344 37.1279 21.2454L39.0109 26.608C39.1515 26.9543 39.2244 27.7327 38.4583 28.2539L34.0305 31.1714C33.72 31.3762 33.341 31.4494 32.9765 31.3751C32.6121 31.3009 32.292 31.0851 32.0864 30.7752C31.985 30.6214 31.9149 30.4491 31.88 30.2681C31.8452 30.0872 31.8464 29.9012 31.8835 29.7207C31.9206 29.5402 31.9929 29.3688 32.0963 29.2163C32.1997 29.0637 32.3321 28.9331 32.486 28.8317L36.0003 26.5155L35.0112 23.7868H33.6421L34.444 26.0005L31.7759 27.7591C31.4806 27.9525 31.2266 28.2026 31.0287 28.495C30.8308 28.7873 30.6929 29.1161 30.6231 29.4622C30.5507 29.8081 30.5476 30.165 30.6142 30.5121C30.6808 30.8592 30.8156 31.1896 31.0109 31.4841C31.1675 31.7177 31.3596 31.9253 31.5803 32.0995H27.8861C28.1064 31.9247 28.2986 31.7172 28.456 31.4841C28.6512 31.1895 28.7861 30.8591 28.8529 30.5121C28.9196 30.165 28.9169 29.8082 28.8449 29.4622C28.7747 29.1162 28.6366 28.7876 28.4386 28.4952C28.2407 28.2029 27.9868 27.9527 27.6916 27.7591L25.0218 26.0005L25.8271 23.7868H24.4569L23.4655 26.5155L26.9816 28.8317C27.6277 29.2576 27.8082 30.1302 27.3806 30.7752C26.953 31.4203 26.0821 31.5985 25.4359 31.1714L21.0087 28.2539C20.242 27.7322 20.3143 26.9543 20.4544 26.608H20.455Z" fill="white"/>
<path d="M28.8687 14.197C28.9745 14.4267 29.1439 14.6212 29.3568 14.7576C29.5698 14.8939 29.8173 14.9664 30.0702 14.9665C30.3234 14.9666 30.5714 14.8942 30.7848 14.7578C30.9983 14.6215 31.1682 14.4269 31.2745 14.197H33.7C33.7392 14.41 33.7622 14.628 33.7622 14.8527C33.7615 15.8347 33.3707 16.7761 32.676 17.4701C31.9812 18.164 31.0393 18.5536 30.0573 18.5531C29.571 18.5535 29.0894 18.4581 28.64 18.2723C28.1906 18.0865 27.7822 17.814 27.4381 17.4704C27.094 17.1268 26.821 16.7188 26.6346 16.2696C26.4482 15.8205 26.3521 15.339 26.3518 14.8527C26.3518 14.6274 26.3759 14.41 26.4135 14.197H28.8681H28.8687Z" fill="white"/>
<path d="M31.3558 13.3234C31.2835 13.0371 31.1177 12.7831 30.8848 12.6016C30.6518 12.4201 30.365 12.3215 30.0697 12.3214C29.4498 12.3214 28.927 12.7495 28.7857 13.3234H26.6842C26.9784 12.6758 27.4528 12.1266 28.0508 11.7414C28.6487 11.3563 29.3449 11.1514 30.0562 11.1512C30.7675 11.1515 31.4636 11.3564 32.0615 11.7416C32.6595 12.1268 33.1339 12.6759 33.4282 13.3234H31.3552H31.3558Z" fill="white"/>
</g>
<defs>
<clipPath id="clip0_486_231">
<rect width="60" height="60" fill="white"/>
</clipPath>
</defs>
</svg>
