<svg width="60" height="60" viewBox="0 0 60 60" fill="none" xmlns="http://www.w3.org/2000/svg">
<g clip-path="url(#clip0_486_234)">
<circle cx="30" cy="30" r="30" fill="#6BB2BC"/>
<path d="M37.3057 35.706C36.741 34.7157 37.1928 33.8396 38.3222 33.8396H38.5481C39.6775 33.8396 40.1293 33.0969 39.5646 32.1065L36.8163 27.3262C36.2516 26.3359 36.5151 25.555 37.4187 25.555C38.3222 25.555 38.5857 24.7361 38.021 23.7458L35.5551 19.4606C34.9904 18.4703 34.0681 16.8515 33.4845 15.8611L31.0374 11.576C30.4539 10.5857 29.5315 10.5857 28.9668 11.576L26.5009 15.8611C25.9362 16.8515 25.0139 18.4893 24.4303 19.4797L21.9832 23.7648C21.3997 24.7552 21.6821 25.555 22.5668 25.555C23.4515 25.555 23.7527 26.374 23.1691 27.3643L20.4209 32.1065C19.8562 33.0969 20.3267 33.8396 21.4562 33.8396H21.6632C22.7927 33.8396 23.2632 34.7157 22.6985 35.706L18.7456 42.6384C18.1808 43.6478 18.6326 44.5048 19.762 44.5048H40.2234C41.3528 44.5048 41.8234 43.6478 41.2587 42.6384L37.3057 35.706Z" fill="white"/>
<g style="mix-blend-mode:multiply">
<path d="M30.0774 10.833C29.6821 10.7949 29.268 11.0425 28.9668 11.5758L26.5009 15.8609C25.9362 16.8512 25.0139 18.4891 24.4303 19.4795L21.9832 23.7646C21.3997 24.7549 21.6821 25.5548 22.5668 25.5548C23.4515 25.5548 23.7527 26.3738 23.1691 27.3641L20.4209 32.1254C19.8562 33.1157 20.3267 33.8965 21.4562 33.8965H21.6632C22.7927 33.8965 23.2632 34.7345 22.6985 35.7249L18.7456 42.6572C18.1808 43.6476 18.6326 44.5237 19.762 44.5237H30.0774V10.833Z" fill="white"/>
</g>
<path d="M27.4419 49.1708L29.3243 23.6505H30.0772L31.9596 49.1708H27.4419Z" fill="white"/>
<path d="M29.3247 36.0108L32.8447 33.573L33.0706 33.8015L30.6612 37.363L29.3247 36.0108Z" fill="white"/>
<path d="M29.3242 41.5529L26.9336 37.9915L27.1595 37.7629L30.6607 40.2007L29.3242 41.5529Z" fill="white"/>
<path d="M29.3242 32.9826L26.9336 29.4212L27.1595 29.1926L30.6607 31.6304L29.3242 32.9826Z" fill="white"/>
</g>
<defs>
<clipPath id="clip0_486_234">
<rect width="60" height="60" fill="white"/>
</clipPath>
</defs>
</svg>
