<svg width="60" height="60" viewBox="0 0 60 60" fill="none" xmlns="http://www.w3.org/2000/svg">
<g clip-path="url(#clip0_486_185)">
<circle cx="30" cy="30" r="30" fill="#6BB2BC"/>
<path d="M11.416 33.1062H42.0173V35.515H11.416V33.1062Z" fill="white"/>
<path d="M34.1562 39.6108C34.1562 38.0053 27.0876 38.1662 27.0876 39.6321V45.0655C27.0169 45.8137 27.5602 46.5475 28.3113 46.5475L47.2448 46.5487C47.4236 46.549 47.6007 46.5139 47.766 46.4456C47.9312 46.3773 48.0814 46.2771 48.2078 46.1507C48.3343 46.0243 48.4346 45.8742 48.5029 45.709C48.5713 45.5437 48.6064 45.3667 48.6063 45.1878L48.6081 27.9845C48.6081 17.1747 39.3295 8.48638 28.3155 9.48804C27.9557 9.52088 27.6238 9.69515 27.3924 9.97258C27.1611 10.25 27.0493 10.6079 27.0816 10.9677V16.822H34.1562V12.6753C40.9184 14.4886 45.8827 20.6624 45.8851 27.9792C45.8608 35.2912 40.9214 41.4935 34.1562 43.2973V39.6096V39.6108Z" fill="white"/>
<path d="M36.54 28.0261C36.5399 27.6258 36.6186 27.2294 36.7717 26.8595C36.9248 26.4896 37.1493 26.1536 37.4323 25.8705C37.7153 25.5874 38.0514 25.3628 38.4212 25.2097C38.7911 25.0565 39.1875 24.9777 39.5878 24.9778C40.3963 24.9781 41.1718 25.2993 41.7437 25.8708C42.3157 26.4423 42.6375 27.2175 42.6384 28.0261C42.6367 28.8345 42.3147 29.6094 41.7429 30.1809C41.1712 30.7525 40.3962 31.0742 39.5878 31.0756C38.7795 31.0745 38.0047 30.7528 37.4333 30.1811C36.8619 29.6094 36.5407 28.8344 36.54 28.0261Z" fill="white"/>
<path d="M32.6419 24.8709H22.4288L11.3916 26.5601V31.0714L19.4197 31.0726C19.1662 30.6688 19.0308 30.2021 19.029 29.7254C19.0301 29.0417 19.3022 28.3863 19.7857 27.903C20.2692 27.4196 20.9246 27.1476 21.6083 27.1467H27.202L31.7353 26.1997L31.9876 27.4032L27.329 28.3758H21.6083C21.4312 28.3746 21.2556 28.4083 21.0916 28.475C20.9275 28.5417 20.7782 28.64 20.6522 28.7644C20.3976 29.0156 20.2533 29.3576 20.2509 29.7153C20.2486 30.0729 20.3884 30.4168 20.6396 30.6713C20.8908 30.9259 21.2328 31.0702 21.5904 31.0726L32.6639 31.0744C34.3774 31.0607 35.7514 29.6814 35.7514 27.9768C35.7515 27.5685 35.671 27.1643 35.5147 26.7871C35.3584 26.41 35.1293 26.0674 34.8404 25.7789C34.5515 25.4904 34.2086 25.2617 33.8313 25.1059C33.4539 24.9501 33.0496 24.8702 32.6413 24.8709H32.6419Z" fill="white"/>
</g>
<defs>
<clipPath id="clip0_486_185">
<rect width="60" height="60" fill="white"/>
</clipPath>
</defs>
</svg>
