<svg width="24" height="24" viewBox="0 0 24 24" fill="none" xmlns="http://www.w3.org/2000/svg">
<path d="M18.373 4.27169C17.9954 4.27169 17.6332 4.42168 17.3662 4.68869C17.0992 4.95569 16.9492 5.31782 16.9492 5.69541C16.949 5.87933 16.9862 6.06137 17.0585 6.23046C17.1309 6.39955 17.2369 6.55216 17.37 6.679C17.5032 6.80584 17.6608 6.90425 17.8332 6.96827C18.0056 7.03228 18.1893 7.06054 18.373 7.05135C18.5811 7.09759 18.7969 7.09651 19.0046 7.04817C19.2122 6.99983 19.4064 6.90549 19.5727 6.77208C19.739 6.63868 19.8732 6.46963 19.9654 6.27741C20.0576 6.08519 20.1055 5.87472 20.1055 5.66152C20.1055 5.44833 20.0576 5.23784 19.9654 5.04563C19.8732 4.85341 19.739 4.68437 19.5727 4.55096C19.4064 4.41756 19.2122 4.3232 19.0046 4.27487C18.7969 4.22653 18.5811 4.22545 18.373 4.27169Z" fill="url(#paint0_linear_71_53)"/>
<path d="M12.1356 6.10205C10.969 6.10205 9.82866 6.44798 8.85869 7.0961C7.88872 7.74421 7.13272 8.6654 6.68629 9.74317C6.23986 10.8209 6.12305 12.0069 6.35064 13.1511C6.57823 14.2952 7.13999 15.3462 7.96489 16.1711C8.78978 16.996 9.84077 17.5577 10.9849 17.7853C12.1291 18.0129 13.315 17.8961 14.3928 17.4497C15.4706 17.0032 16.3918 16.2473 17.0399 15.2773C17.688 14.3073 18.0339 13.1669 18.0339 12.0004C18.0163 10.4415 17.3892 8.95146 16.2869 7.8491C15.1845 6.74675 13.6945 6.11967 12.1356 6.10205ZM12.1356 15.797C11.1341 15.7795 10.1785 15.374 9.47028 14.6657C8.76202 13.9574 8.35642 13.0018 8.339 12.0004C8.339 11.2495 8.56168 10.5154 8.97886 9.89107C9.39603 9.26672 9.98897 8.7801 10.6827 8.49275C11.3764 8.20539 12.1398 8.1302 12.8763 8.27669C13.6128 8.42318 14.2893 8.78478 14.8202 9.31575C15.3512 9.84671 15.7128 10.5232 15.8593 11.2597C16.0058 11.9961 15.9306 12.7595 15.6432 13.4533C15.3559 14.147 14.8693 14.7399 14.2449 15.1571C13.6206 15.5743 12.8865 15.797 12.1356 15.797Z" fill="url(#paint1_linear_71_53)"/>
<path d="M16.8135 24.0003H7.25425C5.3303 24.0003 3.48516 23.236 2.12473 21.8756C0.764293 20.5152 7.11618e-09 18.67 7.11618e-09 16.7461V7.18676C-4.2245e-05 6.2373 0.18807 5.29723 0.553454 4.42088C0.918839 3.54453 1.45426 2.74928 2.12878 2.08106C2.8033 1.41284 3.60355 0.884912 4.48329 0.527772C5.36303 0.170632 6.30482 -0.00863742 7.25425 0.00031983H16.8135C17.7573 0.00031983 18.6918 0.186203 19.5637 0.547355C20.4356 0.908508 21.2278 1.43786 21.8951 2.10518C22.5625 2.7725 23.0918 3.56472 23.453 4.43662C23.8141 5.30852 24 6.24303 24 7.18676V16.7461C24.0001 18.6583 23.2451 20.4933 21.8993 21.8518C20.5535 23.2103 18.7257 23.9824 16.8135 24.0003ZM7.25425 2.23761C5.94165 2.23761 4.6828 2.75904 3.75465 3.68718C2.82651 4.61533 2.30508 5.87417 2.30508 7.18676V16.7461C2.29595 17.3985 2.41774 18.0462 2.66322 18.6508C2.90871 19.2554 3.27292 19.8046 3.73432 20.266C4.19572 20.7274 4.74495 21.0916 5.34953 21.3371C5.95412 21.5826 6.60179 21.7044 7.25425 21.6952H16.8135C18.1261 21.6952 19.385 21.1738 20.3131 20.2457C21.2413 19.3175 21.7627 18.0587 21.7627 16.7461V7.18676C21.7627 5.87417 21.2413 4.61533 20.3131 3.68718C19.385 2.75904 18.1261 2.23761 16.8135 2.23761H7.25425Z" fill="url(#paint2_linear_71_53)"/>
<defs>
<linearGradient id="paint0_linear_71_53" x1="7.36957" y1="-4.84015" x2="29.1255" y2="15.9802" gradientUnits="userSpaceOnUse">
<stop stop-color="white"/>
</linearGradient>
<linearGradient id="paint1_linear_71_53" x1="1.23391" y1="1.57324" x2="22.9898" y2="22.3936" gradientUnits="userSpaceOnUse">
<stop stop-color="white"/>
</linearGradient>
<linearGradient id="paint2_linear_71_53" x1="1.18644" y1="1.62066" x2="22.9424" y2="22.441" gradientUnits="userSpaceOnUse">
<stop stop-color="white"/>
</linearGradient>
</defs>
</svg>
