<svg width="69" height="93" viewBox="0 0 69 93" fill="none" xmlns="http://www.w3.org/2000/svg">
<g clip-path="url(#clip0_67_36)">
<path d="M65.8949 29.9667H61.7549V30.7245H65.8949V29.9667Z" fill="#307172"/>
<path d="M7.93492 29.9667H3.79492V30.7245H7.93492V29.9667Z" fill="#307172"/>
<path d="M62.0999 28.5889C62.0999 34.0389 60.4812 39.3664 57.4485 43.8979C54.4158 48.4294 50.1052 51.9613 45.062 54.0469C40.0187 56.1325 34.4693 56.6782 29.1154 55.615C23.7615 54.5517 18.8437 51.9273 14.9838 48.0736C11.1238 44.2199 8.49519 39.31 7.43024 33.9647C6.36529 28.6194 6.91186 23.0789 9.00084 18.0438C11.0898 13.0087 14.6274 8.70512 19.1662 5.67728C23.705 2.64943 29.0412 1.03333 34.4999 1.03333C41.8199 1.03333 48.8401 3.9365 54.0161 9.10417C59.1921 14.2718 62.0999 21.2807 62.0999 28.5889Z" fill="#307172"/>
<path d="M34.4998 57.1778C28.8363 57.1778 23.3 55.5011 18.591 52.3597C13.882 49.2183 10.2118 44.7533 8.04447 39.5294C5.87715 34.3054 5.31009 28.5572 6.41497 23.0115C7.51986 17.4658 10.2471 12.3717 14.2518 8.3735C18.2564 4.37527 23.3587 1.65245 28.9133 0.549338C34.468 -0.553771 40.2255 0.0123945 45.4579 2.17622C50.6903 4.34004 55.1624 8.00433 58.3089 12.7058C61.4553 17.4072 63.1348 22.9345 63.1348 28.5889C63.1348 32.3432 62.3941 36.0608 60.955 39.5294C59.516 42.9979 57.4068 46.1496 54.7478 48.8043C52.0888 51.459 48.9321 53.5648 45.4579 55.0016C41.9837 56.4383 38.2602 57.1778 34.4998 57.1778ZM34.4998 2.06669C29.2609 2.13462 24.1592 3.74765 19.8362 6.70294C15.5133 9.65823 12.1621 13.8238 10.2043 18.6757C8.24641 23.5276 7.76931 28.8491 8.83296 33.9711C9.8966 39.093 12.4535 43.7865 16.182 47.4613C19.9106 51.1361 24.6443 53.6281 29.7878 54.6239C34.9312 55.6197 40.2548 55.0747 45.0888 53.0576C49.9229 51.0404 54.0516 47.6412 56.9556 43.2874C59.8596 38.9337 61.4093 33.8197 61.4098 28.5889C61.4101 25.0768 60.7117 21.5996 59.3551 18.3591C57.9986 15.1186 56.0109 12.1794 53.5075 9.71202C51.004 7.24465 48.0347 5.29828 44.7717 3.98585C41.5088 2.67342 38.0172 2.02108 34.4998 2.06669Z" fill="#307172"/>
<path d="M36.2252 89.2111C36.2252 89.6679 36.0434 90.1059 35.7199 90.4289C35.3964 90.7519 34.9577 90.9333 34.5002 90.9333C34.006 90.9402 33.5257 90.7704 33.1461 90.4545C32.7664 90.1387 32.5125 89.6976 32.4302 89.2111V60.9667C32.5125 60.4802 32.7664 60.0391 33.1461 59.7233C33.5257 59.4074 34.006 59.2376 34.5002 59.2445C34.9577 59.2445 35.3964 59.4259 35.7199 59.7489C36.0434 60.0719 36.2252 60.5099 36.2252 60.9667V89.2111Z" fill="#307172"/>
<path d="M48.2998 88.8667H20.3548C19.2569 88.8667 18.2038 89.3021 17.4274 90.0773C16.651 90.8524 16.2148 91.9038 16.2148 93H52.7849C52.7868 92.427 52.6695 91.8598 52.4402 91.3345C52.2109 90.8091 51.8747 90.3371 51.4529 89.9485C51.0312 89.5598 50.5331 89.2629 49.9903 89.0766C49.4475 88.8904 48.8718 88.8189 48.2998 88.8667Z" fill="#307172"/>
<path d="M64.515 30.3112C64.515 38.2588 61.3527 45.881 55.7238 51.5008C50.0949 57.1206 42.4605 60.2778 34.5 60.2778C26.5396 60.2778 18.9051 57.1206 13.2762 51.5008C7.64733 45.881 4.48504 38.2588 4.48504 30.3112H2.41504C2.59626 38.6556 6.06751 46.5917 12.0749 52.3959C18.0823 58.2002 26.1407 61.4038 34.5 61.3112C42.8074 61.2304 50.7669 57.9697 56.7369 52.2017C62.7068 46.4336 66.2319 38.598 66.585 30.3112H64.515Z" fill="#307172"/>
<path d="M36.5701 57.5222H32.4301C31.0964 57.5222 30.0151 58.6017 30.0151 59.9333V60.45C30.0151 61.7816 31.0964 62.8611 32.4301 62.8611H36.5701C37.9039 62.8611 38.9851 61.7816 38.9851 60.45V59.9333C38.9851 58.6017 37.9039 57.5222 36.5701 57.5222Z" fill="#307172"/>
<path d="M69.0002 30.6555C69.0002 30.928 68.9193 31.1944 68.7677 31.4209C68.616 31.6475 68.4005 31.8241 68.1483 31.9284C67.8962 32.0327 67.6187 32.06 67.351 32.0068C67.0833 31.9537 66.8374 31.8224 66.6444 31.6297C66.4514 31.437 66.32 31.1916 66.2668 30.9243C66.2135 30.657 66.2408 30.38 66.3453 30.1283C66.4497 29.8765 66.6266 29.6613 66.8535 29.5099C67.0805 29.3585 67.3473 29.2777 67.6202 29.2777C67.9862 29.2777 68.3372 29.4229 68.596 29.6813C68.8548 29.9396 69.0002 30.2901 69.0002 30.6555Z" fill="#307172"/>
<path d="M2.415 30.6555C2.415 31.3444 2.07 32.0333 1.38 32.0333C1.014 32.0333 0.662992 31.8881 0.404192 31.6297C0.145391 31.3714 0 31.0209 0 30.6555C0 30.2901 0.145391 29.9396 0.404192 29.6813C0.662992 29.4229 1.014 29.2777 1.38 29.2777C2.07 29.2777 2.415 29.9666 2.415 30.6555Z" fill="#307172"/>
</g>
<defs>
<clipPath id="clip0_67_36">
<rect width="69" height="93" fill="white"/>
</clipPath>
</defs>
</svg>
