<svg width="27" height="27" viewBox="0 0 27 27" fill="none" xmlns="http://www.w3.org/2000/svg">
<path d="M26.2296 19.0792L20.3233 16.548C20.071 16.4405 19.7906 16.4178 19.5243 16.4834C19.258 16.5491 19.0202 16.6994 18.8467 16.9119L16.2311 20.1076C12.1261 18.1721 8.82257 14.8685 6.88711 10.7636L10.0828 8.14794C10.2957 7.9748 10.4464 7.73702 10.512 7.47059C10.5777 7.20416 10.5547 6.9236 10.4467 6.67138L7.91543 0.765125C7.79684 0.493231 7.58709 0.271239 7.32235 0.137427C7.05762 0.00361512 6.75449 -0.0336289 6.46523 0.0321171L0.980859 1.29774C0.701984 1.36214 0.45317 1.51916 0.275028 1.74318C0.0968864 1.9672 -6.42416e-05 2.24498 3.1937e-08 2.5312C3.1937e-08 16.0576 10.9635 26.9999 24.4688 26.9999C24.7551 27.0001 25.033 26.9032 25.2571 26.7251C25.4812 26.5469 25.6383 26.2981 25.7027 26.0191L26.9684 20.5347C27.0337 20.2441 26.9956 19.9397 26.8608 19.6741C26.726 19.4084 26.5027 19.1981 26.2296 19.0792Z" fill="white"/>
</svg>
