<svg width="68" height="68" viewBox="0 0 68 68" fill="none" xmlns="http://www.w3.org/2000/svg">
<g clip-path="url(#clip0_58_9)">
<path fill-rule="evenodd" clip-rule="evenodd" d="M8.90009 66.6L7.2001 57L19.6001 51.6V67.2H9.1001L8.90009 66.6ZM6.80008 55.1L4.90009 44.4L19.6001 38V49.6L6.80008 55.1ZM4.50009 42.5L2.6001 32.1L19.6001 24.7V35.9L4.50009 42.5ZM2.30008 30.2L0.100098 18.3V17.8L0.500092 17.5L18.5001 7.10001L19.6001 6.5V22.7L2.30008 30.2ZM48.9001 23.3L67.2001 27.6L66.5001 32.4L47.0001 42L48.9001 23.3ZM66.2001 34.6L64.9001 42.5L46.0001 51.6L46.7001 44.2L66.2001 34.6ZM64.6001 44.7L63.3001 53L45.0001 61.2L45.8001 53.8L64.6001 44.7ZM63.0001 55.2L61.1001 67.2H44.4001L44.8001 63.4L63.0001 55.2ZM21.3001 0V25.5L47.5001 22.8L48.6001 11.5L21.3001 0ZM21.3001 27.4V34L46.7001 31.6L47.3001 24.7L21.3001 27.4ZM21.3001 35.8V42.7L45.7001 40.8L46.5001 33.5L21.3001 35.8ZM21.2001 44.5V67.3H43.1001L45.5001 42.7L21.2001 44.5Z" fill="#307172"/>
</g>
<defs>
<clipPath id="clip0_58_9">
<rect width="67.3" height="67.3" fill="white"/>
</clipPath>
</defs>
</svg>
