<svg width="179" height="180" viewBox="0 0 179 180" fill="none" xmlns="http://www.w3.org/2000/svg">
<g clip-path="url(#clip0_486_175)">
<circle cx="89.5" cy="90.3428" r="89.5" fill="#307172"/>
<path d="M17 90.3828H34.4V98.4828H17V90.3828ZM41.2906 79.4028C42.4506 78.9228 43.6506 78.3828 44.8906 77.7828C46.1706 77.1428 47.4106 76.4628 48.6106 75.7428C49.8106 74.9828 50.9506 74.2028 52.0306 73.4028C53.1506 72.5628 54.1506 71.6828 55.0306 70.7628H61.2706V112.343H52.3306V82.4028C51.1306 83.2028 49.7906 83.9428 48.3106 84.6228C46.8306 85.2628 45.3906 85.8228 43.9906 86.3028L41.2906 79.4028ZM93.9922 100.103C93.9922 98.9428 93.7322 97.9228 93.2122 97.0428C92.6922 96.1228 91.7922 95.3628 90.5122 94.7628C89.2322 94.1628 87.5122 93.7028 85.3522 93.3828C83.1922 93.0628 80.4722 92.9028 77.1922 92.9028C77.6322 89.1828 77.9922 85.4028 78.2722 81.5628C78.5522 77.7228 78.7722 74.1228 78.9322 70.7628H101.432V78.2628H86.4322C86.3522 79.7028 86.2522 81.1028 86.1322 82.4628C86.0522 83.7828 85.9522 84.9428 85.8322 85.9428C91.6722 86.3428 95.9722 87.7228 98.7322 90.0828C101.532 92.4028 102.932 95.6428 102.932 99.8028C102.932 101.723 102.592 103.503 101.912 105.143C101.232 106.783 100.212 108.203 98.8522 109.403C97.4922 110.603 95.7722 111.543 93.6922 112.223C91.6522 112.903 89.2522 113.243 86.4922 113.243C85.4122 113.243 84.2722 113.163 83.0722 113.003C81.9122 112.883 80.7722 112.703 79.6522 112.463C78.5722 112.263 77.5922 112.043 76.7122 111.803C75.8322 111.563 75.1522 111.323 74.6722 111.083L76.2922 103.703C77.2922 104.143 78.6122 104.583 80.2522 105.023C81.8922 105.423 83.8522 105.623 86.1322 105.623C88.8922 105.623 90.8922 105.083 92.1322 104.003C93.3722 102.883 93.9922 101.583 93.9922 100.103ZM131.034 81.4428C131.034 85.2028 130.074 88.0828 128.154 90.0828C126.234 92.0828 123.654 93.0828 120.414 93.0828C117.174 93.0828 114.594 92.0828 112.674 90.0828C110.754 88.0828 109.794 85.2028 109.794 81.4428C109.794 77.6828 110.754 74.8028 112.674 72.8028C114.594 70.8028 117.174 69.8028 120.414 69.8028C123.654 69.8028 126.234 70.8028 128.154 72.8028C130.074 74.8028 131.034 77.6828 131.034 81.4428ZM124.254 81.4428C124.254 79.4028 123.894 77.9228 123.174 77.0028C122.454 76.0828 121.534 75.6228 120.414 75.6228C119.254 75.6228 118.314 76.0828 117.594 77.0028C116.914 77.9228 116.574 79.4028 116.574 81.4428C116.574 83.4828 116.914 84.9828 117.594 85.9428C118.314 86.8628 119.254 87.3228 120.414 87.3228C121.534 87.3228 122.454 86.8628 123.174 85.9428C123.894 84.9828 124.254 83.4828 124.254 81.4428ZM142.734 70.7628H151.074L127.614 112.343H119.274L142.734 70.7628ZM160.674 101.663C160.674 105.423 159.714 108.303 157.794 110.303C155.874 112.303 153.294 113.303 150.054 113.303C146.814 113.303 144.234 112.303 142.314 110.303C140.394 108.303 139.434 105.423 139.434 101.663C139.434 97.9028 140.394 95.0228 142.314 93.0228C144.234 91.0228 146.814 90.0228 150.054 90.0228C153.294 90.0228 155.874 91.0228 157.794 93.0228C159.714 95.0228 160.674 97.9028 160.674 101.663ZM153.894 101.663C153.894 99.6228 153.534 98.1428 152.814 97.2228C152.094 96.3028 151.174 95.8428 150.054 95.8428C148.894 95.8428 147.954 96.3028 147.234 97.2228C146.554 98.1428 146.214 99.6228 146.214 101.663C146.214 103.703 146.554 105.203 147.234 106.163C147.954 107.083 148.894 107.543 150.054 107.543C151.174 107.543 152.094 107.083 152.814 106.163C153.534 105.203 153.894 103.703 153.894 101.663Z" fill="white"/>
</g>
<defs>
<clipPath id="clip0_486_175">
<rect width="179" height="179" fill="white" transform="translate(0 0.842773)"/>
</clipPath>
</defs>
</svg>
