<svg width="76" height="76" viewBox="0 0 76 76" fill="none" xmlns="http://www.w3.org/2000/svg">
<path d="M71.5982 5.06713C71.6289 5.01177 71.6483 4.95088 71.6553 4.88798C71.6623 4.82509 71.6568 4.76143 71.639 4.70068C71.6213 4.63993 71.5917 4.58329 71.552 4.53404C71.5122 4.48479 71.4631 4.4439 71.4075 4.41373L67.9109 2.50887C67.8555 2.47832 67.7946 2.45907 67.7317 2.45225C67.6688 2.44543 67.6051 2.45116 67.5445 2.46912C67.4838 2.48708 67.4273 2.51691 67.3782 2.55688C67.3292 2.59684 67.2885 2.64615 67.2587 2.70194L65.8565 5.2602C60.5552 3.67085 54.6817 5.93126 51.9233 10.983L58.6986 14.6821C58.1604 15.6689 58.0364 16.8291 58.3536 17.9074C58.6709 18.9857 59.4035 19.8939 60.3904 20.432C61.3772 20.9701 62.5374 21.0942 63.6157 20.777C64.694 20.4597 65.6021 19.7271 66.1403 18.7402L72.9179 22.4346C75.6787 17.3852 74.4108 11.2232 70.1984 7.62656L71.5982 5.06595V5.06713Z" fill="#307172"/>
<path d="M23.8623 51.1487H1.05929V74.7205H23.8623V51.1487Z" fill="#307172"/>
<path d="M26.476 62.93H44.8924C46.4359 62.9297 47.916 62.3168 49.0078 61.2258C50.0996 60.1349 50.7138 58.6552 50.7153 57.1118C50.7144 55.5683 50.1004 54.0884 49.0085 52.9975C47.9165 51.9066 46.4359 51.2942 44.8924 51.2948H26.476V62.93Z" fill="#307172"/>
<path d="M66.1826 67.6498C66.1826 66.3489 65.1289 65.2928 63.8269 65.2928H26.4772V74.7183H66.1826V67.6486V67.6498Z" fill="#307172"/>
<path d="M52.02 55.9063C52.0219 57.7704 52.7639 59.5574 54.083 60.8745C55.4021 62.1916 57.1903 62.931 59.0543 62.9301C59.9775 62.9308 60.8917 62.7498 61.7449 62.3972C62.5981 62.0447 63.3734 61.5275 64.0268 60.8753C64.6801 60.2231 65.1985 59.4486 65.5525 58.596C65.9065 57.7434 66.0891 56.8295 66.0898 55.9063C66.0898 52.0295 62.9406 48.8861 59.0543 48.8861C55.1704 48.8861 52.02 52.0295 52.02 55.9063Z" fill="#307172"/>
<path d="M13.5694 36.2373L17.5263 24.9718C18.2939 22.8479 19.7678 21.1903 23.9284 21.1903H42.1953C46.3547 21.1903 47.831 22.8479 48.5951 24.9718L52.5508 36.2373C52.8463 36.9649 52.9993 38.6001 51.39 39.695L42.0882 45.824C41.4359 46.2541 40.6397 46.408 39.8741 46.2519C39.1086 46.0959 38.4361 45.6427 38.0041 44.9917C37.7911 44.6685 37.6438 44.3065 37.5707 43.9264C37.4976 43.5463 37.5 43.1555 37.578 42.7763C37.6559 42.3972 37.8078 42.0371 38.025 41.7167C38.2421 41.3962 38.5203 41.1217 38.8435 40.9088L46.2264 36.0431L44.1484 30.3108H41.2723L42.957 34.9611L37.3519 38.6555C36.7315 39.0618 36.1979 39.5873 35.7822 40.2014C35.3665 40.8156 35.0769 41.5063 34.9302 42.2333C34.778 42.96 34.7716 43.7097 34.9115 44.4388C35.0513 45.168 35.3346 45.8621 35.7449 46.4809C36.0738 46.9715 36.4774 47.4077 36.941 47.7736H29.1803C29.6431 47.4064 30.0469 46.9705 30.3776 46.4809C30.7877 45.862 31.0711 45.168 31.2113 44.4389C31.3516 43.7098 31.3459 42.9601 31.1947 42.2333C31.0471 41.5065 30.757 40.8161 30.3411 40.202C29.9253 39.5879 29.3919 39.0623 28.7718 38.6555L23.1632 34.9611L24.8549 30.3108H21.9764L19.8938 36.0431L27.2802 40.9088C28.6376 41.8036 29.0167 43.6366 28.1184 44.9917C27.2201 46.3467 25.3906 46.7211 24.0332 45.824L14.7326 39.695C13.122 38.599 13.2739 36.9649 13.5682 36.2373H13.5694Z" fill="#307172"/>
<path d="M31.2443 10.1647C31.4666 10.6471 31.8225 11.0558 32.2698 11.3423C32.7171 11.6287 33.2372 11.781 33.7684 11.7811C34.3004 11.7813 34.8214 11.6292 35.2697 11.3427C35.718 11.0563 36.075 10.6475 36.2984 10.1647H41.3937C41.4761 10.612 41.5244 11.07 41.5244 11.5421C41.5229 13.605 40.702 15.5828 39.2425 17.0405C37.783 18.4983 35.8042 19.3167 33.7413 19.3158C32.7197 19.3166 31.708 19.1161 30.7639 18.7258C29.8199 18.3356 28.9619 17.7632 28.239 17.0413C27.5162 16.3194 26.9426 15.4622 26.5511 14.5187C26.1595 13.5751 25.9577 12.5637 25.957 11.5421C25.957 11.0688 26.0077 10.612 26.0866 10.1647H31.2431H31.2443Z" fill="#307172"/>
<path d="M36.4701 8.32955C36.3181 7.72807 35.9699 7.19446 35.4805 6.81319C34.9912 6.43192 34.3886 6.22478 33.7682 6.22455C32.4661 6.22455 31.3677 7.124 31.071 8.32955H26.6562C27.2742 6.96913 28.2708 5.8154 29.527 5.00622C30.7832 4.19703 32.2457 3.7666 33.74 3.76636C35.2341 3.76689 36.6966 4.19744 37.9527 5.00659C39.2088 5.81574 40.2055 6.96931 40.8237 8.32955H36.4689H36.4701Z" fill="#307172"/>
</svg>
