<svg width="25" height="20" viewBox="0 0 25 20" fill="none" xmlns="http://www.w3.org/2000/svg">
<g clip-path="url(#clip0_71_50)">
<path d="M24.9655 0.403794C24.9368 0.317041 24.8872 0.23821 24.8208 0.173792C24.7543 0.109374 24.673 0.0612381 24.5835 0.0334321C24.2591 -0.0292637 23.9233 -0.00597641 23.6113 0.100797C23.6113 0.100797 1.70159 7.74388 0.451593 8.58563C0.173815 8.75398 0.104369 8.85497 0.0696464 8.98965C0.0349242 9.12433 0.521031 9.86511 0.521031 9.86511L6.14604 11.6496C6.25137 11.6678 6.35988 11.6561 6.45853 11.6159C7.74326 10.8415 19.3752 3.70349 20.0349 3.4678C20.1391 3.43413 20.2085 3.46778 20.2085 3.53512C19.9308 4.47788 9.82659 13.1647 9.82659 13.1647L9.75714 13.2658L9.23631 18.6866C9.23631 18.6866 8.99326 20.3701 10.7294 18.6866C11.9099 17.5419 13.0905 16.5317 13.6808 16.0604C15.6252 17.3735 17.7085 18.7876 18.6113 19.562C18.7609 19.7056 18.9408 19.816 19.1386 19.8858C19.3364 19.9555 19.5474 19.9829 19.7571 19.9661C20.6252 19.9661 20.8683 19.0233 20.8683 19.0233C20.8683 19.0233 24.8613 3.46778 24.9655 1.38023C24.992 1.22448 25.0036 1.06667 25.0002 0.908845C25.0098 0.739752 24.9981 0.570155 24.9655 0.403794Z" fill="white"/>
</g>
<defs>
<clipPath id="clip0_71_50">
<rect width="25" height="20" fill="white"/>
</clipPath>
</defs>
</svg>
