<svg width="77" height="76" viewBox="0 0 77 76" fill="none" xmlns="http://www.w3.org/2000/svg">
<path d="M48.4217 10.4831L48.4277 10.4812C58.9561 7.15256 68.2946 14.8219 67.4425 23.6825L67.442 23.6874C66.6689 32.0126 63.303 45.2981 60.9081 54.7509C60.658 55.7383 60.4184 56.6839 60.1935 57.5777L60.1934 57.5777L60.1911 57.5873C59.6812 59.6719 58.9531 61.9108 57.7457 63.6236C56.581 65.2759 55.0164 66.3887 52.6939 66.4441L52.6865 66.4444C49.8951 66.5247 46.5912 64.4243 42.677 58.8781L41.785 57.6143L40.5492 58.5447C37.1405 61.1113 32.2009 64.5092 28.4454 65.8769L28.445 65.877C26.9167 66.4341 25.8168 66.6434 24.8762 66.5811C23.9705 66.5211 23.074 66.1993 21.9734 65.4327C19.9224 64.0039 18.6389 61.1688 17.7482 57.5822L17.7479 57.5809C16.9708 54.4642 16.1421 51.4417 15.3363 48.5078L15.2934 48.3517C14.5012 45.4672 13.7333 42.6713 13.0502 39.9259C11.6591 34.3343 10.6393 29.0251 10.5045 23.7886C10.4096 19.8673 11.805 15.917 14.8707 13.1381L14.8707 13.1381L14.875 13.1342C16.4787 11.6691 18.4057 10.6002 20.5006 10.0143C22.5949 9.42847 24.798 9.34176 26.9321 9.76115C31.6969 10.713 36.5401 11.2207 41.3992 11.2775L41.408 11.2776H41.4168C41.7632 11.2776 43.2016 11.1738 44.6188 11.0372C45.3464 10.967 46.1034 10.8849 46.7556 10.7971C47.3667 10.7148 48.0053 10.6128 48.4217 10.4831ZM30.4808 64.0511L30.481 64.051C33.0764 62.7079 36.0591 60.5531 37.3896 59.5919C37.525 59.494 37.6433 59.4086 37.7423 59.3376C43.3792 55.3325 51.4114 48.4382 57.5146 41.0158C60.5654 37.3057 63.1843 33.4036 64.7634 29.6151C66.3362 25.8418 66.9521 21.9951 65.6952 18.5384L65.695 18.538C63.8626 13.5031 58.182 10.1643 51.8823 10.8115L51.7948 10.8204L51.709 10.8396C45.8507 12.1466 42.3001 14.573 39.46 16.5137C39.0985 16.7608 38.7486 16.9999 38.4068 17.2279C36.8905 18.2394 35.6096 18.9832 34.1861 19.3654C32.7973 19.7383 31.1667 19.7928 28.9495 19.2243L28.9488 19.2241C28.8817 19.2069 28.8188 19.1768 28.7638 19.1356L27.865 20.3365L28.7638 19.1356C28.7088 19.0944 28.6627 19.043 28.628 18.9846L27.338 19.7499L28.628 18.9846C28.5933 18.9261 28.5707 18.8616 28.5611 18.7948C28.5516 18.728 28.5553 18.6599 28.5721 18.5944C28.589 18.5289 28.6187 18.4672 28.6597 18.4127L27.4613 17.5106L28.6597 18.4127C28.7007 18.3583 28.7523 18.3121 28.8116 18.2771C28.871 18.2421 28.9369 18.2189 29.0056 18.2092C29.0737 18.1995 29.143 18.2032 29.2095 18.2199C31.4888 18.8121 33.3038 18.6688 35.0538 17.9581C36.501 17.3703 37.8839 16.3907 39.3615 15.3439C39.5462 15.2131 39.7324 15.0812 39.9204 14.9489L43.5381 12.4026L39.1178 12.2235C34.9637 12.0552 30.8288 11.5668 26.7503 10.7627L26.7493 10.7625C24.7684 10.3734 22.7236 10.4542 20.7798 10.9982C18.836 11.5423 17.0472 12.5346 15.5582 13.8952L15.5529 13.9001L15.5476 13.905C14.2263 15.1358 13.1842 16.6346 12.4913 18.3007C11.8019 19.9587 11.4743 21.744 11.5304 23.538C11.5303 23.6011 11.5296 23.6701 11.5289 23.7461C11.52 24.6597 11.5014 26.5725 12.2802 31.1353C13.2937 37.1732 15.2405 44.2973 16.9085 50.4009C17.6027 52.9412 18.2486 55.3047 18.7588 57.3397L18.7599 57.344C19.4595 60.0994 19.8995 61.5382 21.246 63.2877C22.993 65.5575 26.4215 66.1513 30.4808 64.0511ZM43.6612 56.0894L42.5799 56.9715L43.3817 58.1136C44.8762 60.2424 46.3513 61.988 47.7906 63.2331C49.2062 64.4578 50.7429 65.3335 52.3466 65.4232C54.0662 65.5194 55.5202 64.7003 56.6389 63.2707C57.7163 61.8939 58.5442 59.891 59.1817 57.3399C59.6972 55.2974 60.3436 52.9336 61.0354 50.4038C62.0665 46.6328 63.1986 42.493 64.1485 38.4984L61.4489 37.3077C56.801 44.141 50.0786 50.8539 43.6612 56.0894Z" fill="url(#paint0_linear_25_54)" stroke="#307172" stroke-width="3"/>
<defs>
<linearGradient id="paint0_linear_25_54" x1="-20.3877" y1="82.2379" x2="104.27" y2="-14.3042" gradientUnits="userSpaceOnUse">
<stop stop-color="#307172"/>
</linearGradient>
</defs>
</svg>
