<svg width="23" height="23" viewBox="0 0 23 23" fill="none" xmlns="http://www.w3.org/2000/svg">
<g clip-path="url(#clip0_71_52)">
<path d="M0 23L1.6289 16.8277C0.698716 15.1341 0.206099 13.2361 0.195479 11.3051C0.195479 9.05634 0.864209 6.85806 2.11711 4.98826C3.37 3.11847 5.1508 1.66114 7.23429 0.800572C9.31778 -0.0600007 11.6104 -0.285185 13.8222 0.153531C16.034 0.592247 18.0657 1.67516 19.6604 3.26529C21.255 4.85542 22.341 6.88135 22.7809 9.08693C23.2209 11.2925 22.9951 13.5787 22.1321 15.6563C21.269 17.7339 19.8076 19.5096 17.9325 20.759C16.0574 22.0083 13.8529 22.6752 11.5977 22.6752C9.70824 22.685 7.84726 22.2155 6.1898 21.3108L0 23ZM6.45044 19.0368L6.84136 19.2317C8.58252 20.2628 10.6166 20.6914 12.6272 20.4507C14.6378 20.2101 16.5124 19.3138 17.9594 17.9011C19.4065 16.4884 20.3449 14.6385 20.6287 12.6391C20.9126 10.6397 20.526 8.6028 19.5291 6.8451C18.5321 5.0874 16.9807 3.70741 15.1161 2.91971C13.2515 2.132 11.1781 1.98072 9.21829 2.48939C7.25852 2.99805 5.52221 4.13815 4.27933 5.73242C3.03645 7.3267 2.35664 9.28581 2.34561 11.3051C2.33551 13.0047 2.81004 14.6721 3.71389 16.113L3.90935 16.5029L2.99717 19.9464L6.45044 19.0368Z" fill="white"/>
<path fill-rule="evenodd" clip-rule="evenodd" d="M15.8327 12.9293C15.6095 12.7438 15.3465 12.6121 15.064 12.5445C14.7815 12.4769 14.4871 12.4752 14.2038 12.5395C13.7477 12.7344 13.4871 13.3841 13.2265 13.709C13.1727 13.7929 13.0887 13.8532 12.9918 13.8774C12.8949 13.9015 12.7923 13.8878 12.7052 13.8389C11.1419 13.2269 9.83279 12.1046 8.99136 10.6553C8.95347 10.6143 8.92484 10.5656 8.90741 10.5126C8.88999 10.4596 8.88418 10.4035 8.89035 10.3481C8.89653 10.2927 8.91456 10.2392 8.94322 10.1913C8.97189 10.1434 9.01052 10.1023 9.05652 10.0705C9.36993 9.76793 9.59511 9.38618 9.70808 8.96601C9.78433 8.5364 9.69092 8.09403 9.44744 7.73155C9.18682 7.21177 8.99135 6.56205 8.4701 6.30216C8.25073 6.18597 8.00003 6.14225 7.75412 6.17728C7.50822 6.21231 7.27982 6.32429 7.10185 6.49709C6.76289 6.76934 6.4922 7.11658 6.31124 7.5113C6.13029 7.90602 6.04404 8.33736 6.05935 8.7711C6.0769 9.01331 6.12058 9.25292 6.18965 9.48579C6.33856 10.0314 6.55756 10.5555 6.84121 11.0451C7.10183 11.4349 7.2973 11.8248 7.55793 12.1496C8.41894 13.3009 9.47783 14.2907 10.6854 15.0733C11.3109 15.4294 11.9647 15.7336 12.6401 15.983C13.3557 16.3007 14.1397 16.4347 14.9205 16.3728C15.3707 16.3062 15.7971 16.1288 16.1611 15.8565C16.5252 15.5843 16.8154 15.2258 17.0055 14.8135C17.1127 14.5682 17.1574 14.3004 17.1358 14.0338C17.0055 13.514 16.2237 13.1892 15.8327 12.9293Z" fill="white"/>
</g>
<defs>
<clipPath id="clip0_71_52">
<rect width="23" height="23" fill="white"/>
</clipPath>
</defs>
</svg>
